<svg width="36" height="39" viewBox="0 0 36 39" fill="none" xmlns="http://www.w3.org/2000/svg">
<path d="M4.5 39C3.2625 39 2.2035 38.5639 1.323 37.6918C0.441 36.8182 0 35.7686 0 34.5429V14.4857C0 13.78 0.15975 13.1114 0.47925 12.48C0.79725 11.8486 1.2375 11.3286 1.8 10.92L15.3 0.891429C16.0875 0.297143 16.9875 0 18 0C19.0125 0 19.9125 0.297143 20.7 0.891429L34.2 10.92C34.7625 11.3286 35.2035 11.8486 35.523 12.48C35.841 13.1114 36 13.78 36 14.4857V34.5429C36 35.7686 35.5598 36.8182 34.6793 37.6918C33.7973 38.5639 32.7375 39 31.5 39H4.5ZM13.5 23.4V31.2C13.5 31.4971 13.6125 31.7571 13.8375 31.98C14.0625 32.2029 14.325 32.3143 14.625 32.3143C14.925 32.3143 15.1875 32.2029 15.4125 31.98C15.6375 31.7571 15.75 31.4971 15.75 31.2V23.4C16.6875 23.4 17.484 23.0746 18.1395 22.4239C18.7965 21.7746 19.125 20.9857 19.125 20.0571V14.4857C19.125 14.1886 19.0125 13.9286 18.7875 13.7057C18.5625 13.4829 18.3 13.3714 18 13.3714C17.7 13.3714 17.4375 13.4829 17.2125 13.7057C16.9875 13.9286 16.875 14.1886 16.875 14.4857V20.0571H15.75V14.4857C15.75 14.1886 15.6375 13.9286 15.4125 13.7057C15.1875 13.4829 14.925 13.3714 14.625 13.3714C14.325 13.3714 14.0625 13.4829 13.8375 13.7057C13.6125 13.9286 13.5 14.1886 13.5 14.4857V20.0571H12.375V14.4857C12.375 14.1886 12.2625 13.9286 12.0375 13.7057C11.8125 13.4829 11.55 13.3714 11.25 13.3714C10.95 13.3714 10.6875 13.4829 10.4625 13.7057C10.2375 13.9286 10.125 14.1886 10.125 14.4857V20.0571C10.125 20.9857 10.4535 21.7746 11.1105 22.4239C11.766 23.0746 12.5625 23.4 13.5 23.4ZM23.625 32.3143C23.925 32.3143 24.1875 32.2029 24.4125 31.98C24.6375 31.7571 24.75 31.4971 24.75 31.2V14.7086C24.75 14.4114 24.6375 14.1514 24.4125 13.9286C24.1875 13.7057 23.925 13.5943 23.625 13.5943C22.575 13.5943 21.75 14.0214 21.15 14.8757C20.55 15.73 20.25 16.7143 20.25 17.8286V23.4C20.25 23.6971 20.3625 23.9571 20.5875 24.18C20.8125 24.4029 21.075 24.5143 21.375 24.5143H22.5V31.2C22.5 31.4971 22.6125 31.7571 22.8375 31.98C23.0625 32.2029 23.325 32.3143 23.625 32.3143Z" fill="#7ED957"/>
</svg>
