<svg width="55" height="43" viewBox="0 0 55 43" fill="none" xmlns="http://www.w3.org/2000/svg">
<path d="M37.322 36.1591V23.4545H19.5204C18.9994 23.4545 18.4998 23.2486 18.1314 22.8821C17.7631 22.5155 17.5561 22.0184 17.5561 21.5C17.5561 20.9816 17.7631 20.4845 18.1314 20.1179C18.4998 19.7514 18.9994 19.5455 19.5204 19.5455H37.322V6.84091C37.3201 5.02718 36.5951 3.2883 35.3062 2.0058C34.0173 0.7233 32.2697 0.00194016 30.4469 0H6.87511C5.05232 0.00194016 3.30474 0.7233 2.01583 2.0058C0.726916 3.2883 0.00194986 5.02718 0 6.84091V36.1591C0.00194986 37.9728 0.726916 39.7117 2.01583 40.9942C3.30474 42.2767 5.05232 42.9981 6.87511 43H30.4469C32.2697 42.9981 34.0173 42.2767 35.3062 40.9942C36.5951 39.7117 37.3201 37.9728 37.322 36.1591ZM48.294 23.4545L41.8265 29.8911C41.4736 30.2606 41.2798 30.7527 41.2864 31.2624C41.293 31.772 41.4994 32.259 41.8616 32.6194C42.2238 32.9798 42.7132 33.1852 43.2254 33.1917C43.7376 33.1983 44.2322 33.0054 44.6035 32.6543L54.4251 22.8816C54.7932 22.5151 55 22.0182 55 21.5C55 20.9818 54.7932 20.4849 54.4251 20.1184L44.6035 10.3457C44.2322 9.99458 43.7376 9.80175 43.2254 9.80827C42.7132 9.8148 42.2238 10.0202 41.8616 10.3806C41.4994 10.741 41.293 11.228 41.2864 11.7376C41.2798 12.2473 41.4736 12.7394 41.8265 13.1089L48.294 19.5455H37.322V23.4545H48.294Z" fill="white"/>
</svg>
