<svg width="41" height="41" viewBox="0 0 41 41" fill="none" xmlns="http://www.w3.org/2000/svg">
<path d="M34.2722 31.9416C36.1122 29.7277 37.392 27.1032 38.0032 24.2902C38.6144 21.4771 38.5391 18.5582 37.7837 15.7804C37.0282 13.0026 35.6148 10.4476 33.6631 8.33156C31.7114 6.21551 29.2787 4.60066 26.5709 3.62362C23.8631 2.64658 20.9598 2.33608 18.1066 2.71841C15.2534 3.10073 12.5342 4.16463 10.1792 5.82009C7.8241 7.47556 5.9024 9.67389 4.57662 12.2291C3.25084 14.7844 2.55999 17.6213 2.56251 20.5C2.56347 24.6848 4.03818 28.7356 6.72785 31.9416L6.70223 31.9634C6.79191 32.071 6.89441 32.1632 6.98666 32.2696C7.10198 32.4015 7.22626 32.5258 7.34541 32.6539C7.70416 33.0434 8.07316 33.4176 8.4601 33.7686C8.57798 33.8763 8.69969 33.9762 8.81885 34.0787C9.22885 34.4323 9.65038 34.768 10.0873 35.0806C10.1437 35.1191 10.1949 35.169 10.2513 35.2088V35.1934C13.2521 37.3051 16.8319 38.4384 20.5013 38.4384C24.1707 38.4384 27.7505 37.3051 30.7513 35.1934V35.2088C30.8077 35.169 30.8576 35.1191 30.9153 35.0806C31.3509 34.7667 31.7737 34.4323 32.1837 34.0787C32.3029 33.9762 32.4246 33.875 32.5425 33.7686C32.9294 33.4163 33.2984 33.0434 33.6572 32.6539C33.7763 32.5258 33.8993 32.4015 34.0159 32.2696C34.1069 32.1632 34.2107 32.071 34.3004 31.9621L34.2722 31.9416ZM20.5 10.25C21.6403 10.25 22.7551 10.5882 23.7032 11.2217C24.6514 11.8552 25.3904 12.7557 25.8267 13.8092C26.2631 14.8628 26.3773 16.022 26.1548 17.1405C25.9324 18.2589 25.3833 19.2862 24.5769 20.0925C23.7706 20.8989 22.7432 21.448 21.6248 21.6705C20.5064 21.8929 19.3471 21.7788 18.2936 21.3424C17.2401 20.906 16.3396 20.167 15.7061 19.2188C15.0725 18.2707 14.7344 17.156 14.7344 16.0156C14.7344 14.4865 15.3418 13.02 16.4231 11.9387C17.5044 10.8575 18.9709 10.25 20.5 10.25ZM10.259 31.9416C10.2812 30.2592 10.9649 28.6533 12.1621 27.4712C13.3593 26.2891 14.9738 25.6259 16.6563 25.625H24.3438C26.0262 25.6259 27.6407 26.2891 28.8379 27.4712C30.0351 28.6533 30.7188 30.2592 30.741 31.9416C27.9311 34.4737 24.2826 35.8751 20.5 35.8751C16.7174 35.8751 13.069 34.4737 10.259 31.9416Z" fill="#FF85CB"/>
</svg>
