<svg width="37" height="33" viewBox="0 0 37 33" fill="none" xmlns="http://www.w3.org/2000/svg">
<g clip-path="url(#clip0_3_20)">
<path d="M24.6667 10.3125C23.5297 10.3125 22.6111 9.39082 22.6111 8.25C22.6111 7.10918 23.5297 6.1875 24.6667 6.1875H34.9444C36.0814 6.1875 37 7.10918 37 8.25V18.5625C37 19.7033 36.0814 20.625 34.9444 20.625C33.8075 20.625 32.8889 19.7033 32.8889 18.5625V13.2322L22.0073 24.1441C21.2043 24.9498 19.9068 24.9498 19.1038 24.1441L12.2755 17.3572L3.50922 26.2066C2.70627 27.0123 1.40484 27.0123 0.602021 26.2066C-0.200674 25.401 -0.200674 24.099 0.602021 23.2934L10.8816 12.9809C11.6845 12.1752 12.9821 12.1752 13.7851 12.9809L20.5556 19.7678L29.979 10.2545L24.6667 10.3125Z" fill="#FF85CB"/>
</g>
<defs>
<clipPath id="clip0_3_20">
<rect width="37" height="33" fill="white"/>
</clipPath>
</defs>
</svg>
